<svg xmlns="http://www.w3.org/2000/svg" width="1440" height="635" fill="none"><path fill="#0069FF" d="M0 0h1440v635H0z"/><mask id="a" width="1440" height="635" x="0" y="0" maskUnits="userSpaceOnUse" style="mask-type:alpha"><path fill="#0069FF" d="M0 0h1440v635H0z"/></mask><g mask="url(#a)"><path fill="url(#b)" d="M83.52-96.062C-25.06 22.324-304.763-5.927-431.042-34.851c-89.986 124.889-203.289 382.065 63.388 411.662 333.347 36.996 113.353 126.458 11.932 163.454-81.136 29.597-263.992 57.624-345.278 67.938 1005.26 39.686 840.451 546.867 965.735 533.407 100.228-10.76 596.097-4.48 831.505 0L854.617 912.914c-122.55-.673-369.59-68.745-377.345-335.653-9.695-333.635 217.756-10.762 428.056 94.171 210.302 104.933 386.292-102.916 229.692-252.917-156.61-150.001-642.833-113.678-809.879-78.7s-67.117 106.952-139.454 122.423-278.162 14.798-73.083-137.221S214.025 144.074 83.52 95.643 30.573-10.636 125.282 58.648c94.709 69.282 184.944 55.157 199.859 57.175 14.914 2.018 60.405-4.709 111.115 51.794s137.962 52.467 73.083-119.732C444.459-124.313 219.245-244.045 83.52-96.062"/><path fill="url(#c)" d="M564.456-160.927c-8.458 37.806-25.038 63.133-55.117 32.578-67.097-65.87-85.546-91.518-61.577-99.333 2.509-12.222 15.159-19.791 33.529-23.98-17.187-55.464 15.469-146.18 271.615-133.035C1093.71-367.208 1079.54-197.7 1040.76-101.511s-11.18 215.248 176.74 215.248c187.93 0 112.61-51.794 67.12-67.265s-224.47-69.283-224.47-347.76c88.97 150.674 251.32 326.235 337.82 347.76 86.51 21.525 20.88 97.534-21.62 108.969-28.16 7.574-292.33 52.368 77.55 67.266 295.91 11.918 448.44-98.174 487.72-154.71 181.21 148.207 453.26 453.366 91.72 488.344A849 849 0 0 1 1914 559.45l-105.15 564.35-615.24-61.21c-125.28-181.613-258.768-437.752 0-322.056 258.78 115.696-14.17-341.847 306.5-181.084 202.21 101.374 235.15 40.57 220.43-30.028-290.92-77.011-500.57-273.836-585.81-306.715-113.36-43.722-210.303 0-261.013-143.275-35.833-101.24-137.943-218.263-249.237-279.166-17.358 16.497-38.188 30.891-60.024 38.807"/></g><defs><radialGradient id="b" cx="0" cy="0" r="1" gradientTransform="scale(681.937 357.764)rotate(90 .128 .98)" gradientUnits="userSpaceOnUse"><stop stop-color="#1433D6"/><stop offset="1" stop-color="#0069FF"/></radialGradient><radialGradient id="c" cx="0" cy="0" r="1" gradientTransform="scale(681.937 357.764)rotate(90 .128 .98)" gradientUnits="userSpaceOnUse"><stop stop-color="#1433D6"/><stop offset="1" stop-color="#0069FF"/></radialGradient></defs></svg>
